<svg xmlns="http://www.w3.org/2000/svg" xmlns:xlink="http://www.w3.org/1999/xlink" width="65.672" height="67.378" viewBox="0 0 65.672 67.378"><defs><style>.a{fill:url(#a);}</style><linearGradient id="a" x1="0.5" x2="0.5" y2="1" gradientUnits="objectBoundingBox"><stop offset="0" stop-color="#aef5f1"/><stop offset="0.433" stop-color="#1af380"/><stop offset="1" stop-color="#0fd"/></linearGradient></defs><path class="a" d="M61.67,30.9l3.338,3.338a3.594,3.594,0,0,1,0,5.1L35.79,68.568a3.594,3.594,0,0,1-5.1,0L1.457,39.334a3.594,3.594,0,0,1,0-5.1L4.8,30.9a3.613,3.613,0,0,1,5.158.06L27.218,49.079V5.859A3.6,3.6,0,0,1,30.827,2.25h4.812a3.6,3.6,0,0,1,3.609,3.609v43.22L56.512,30.958a3.587,3.587,0,0,1,5.158-.06Z" transform="translate(-0.397 -2.25)"/></svg>