<svg xmlns="http://www.w3.org/2000/svg" xmlns:xlink="http://www.w3.org/1999/xlink" width="239.694" height="69.623" viewBox="0 0 239.694 69.623"><defs><style>.a,.b{fill:#14003a;}.b{stroke:#14003a;stroke-miterlimit:10;stroke-width:0.8px;}.c{fill:#1af380;}.d{fill:url(#a);}</style><linearGradient id="a" x1="0.134" y1="0.841" x2="0.866" y2="0.159" gradientUnits="objectBoundingBox"><stop offset="0" stop-color="#16d9ef"/><stop offset="0.522" stop-color="#29f1d6"/><stop offset="1" stop-color="#1af380"/></linearGradient></defs><g transform="translate(-62.885 -87.105)"><path class="a" d="M375.9,168.064a17.973,17.973,0,1,1,0-35.946c4.026,0,8.859,1.39,11.786,4.025a3.006,3.006,0,0,1,1.171,2.2,2.453,2.453,0,0,1-2.488,2.417,3.131,3.131,0,0,1-1.9-.733,14.628,14.628,0,0,0-8.565-3,13.068,13.068,0,0,0,0,26.135,14.247,14.247,0,0,0,9.371-3.586,3.556,3.556,0,0,1,2.123-.952,2.375,2.375,0,0,1,2.416,2.342,3.229,3.229,0,0,1-.952,2.124C385.852,166.161,380.727,168.064,375.9,168.064Z" transform="translate(-190.88 -29.126)"/><path class="a" d="M80.9,168.064a17.973,17.973,0,1,1,0-35.946c4.026,0,8.859,1.39,11.786,4.025a3.005,3.005,0,0,1,1.171,2.2,2.453,2.453,0,0,1-2.488,2.417,3.131,3.131,0,0,1-1.9-.733,14.627,14.627,0,0,0-8.565-3,13.068,13.068,0,0,0,0,26.135,14.247,14.247,0,0,0,9.371-3.586,3.556,3.556,0,0,1,2.123-.952,2.375,2.375,0,0,1,2.416,2.342,3.229,3.229,0,0,1-.952,2.124C90.852,166.161,85.727,168.064,80.9,168.064Z" transform="translate(0 -29.126)"/><path class="a" d="M468.64,121.734v13.982c0,1.9-.806,2.855-2.489,2.855s-2.489-.951-2.489-2.855V90.106c0-1.977.805-3,2.489-3s2.489,1.025,2.489,3v27.088L482.183,104.6a3.022,3.022,0,0,1,1.978-.806,2.3,2.3,0,0,1,2.415,2.2,2.745,2.745,0,0,1-1.1,1.977l-12.811,11.275L487.6,134.106a3.034,3.034,0,0,1,1.026,2.123,2.284,2.284,0,0,1-2.2,2.343,3.126,3.126,0,0,1-2.124-1.1Z" transform="translate(-259.323)"/><path class="a" d="M553.811,140.254c2.417-3.807,7.248-7.1,12.3-7.1,9.957,0,17.423,8.2,17.423,18.156,0,9.736-7.467,17.937-17.423,17.937-4.978,0-10.177-2.928-12.3-7.029v21.232c0,2.049-.805,3.074-2.489,3.074q-2.416,0-2.416-3.074V136.887c0-1.976.805-2.928,2.416-2.928,1.684,0,2.489.952,2.489,2.928Zm0,11.055c0,7.028,5.2,13.032,12.3,13.032,7.247,0,12.372-6,12.372-13.032,0-7.248-5.125-13.1-12.372-13.1C559.009,138.205,553.811,144.061,553.811,151.309Z" transform="translate(-314.48 -29.795)"/><path class="a" d="M667.541,166.464c0,1.831-.806,2.709-2.49,2.709s-2.488-.878-2.488-2.709V137.326c0-1.977.8-2.929,2.416-2.929,1.683,0,2.563.952,2.563,2.929Z" transform="translate(-388.022 -30.6)"/><path class="a" d="M693.975,113.961V105.1c0-1.9.878-2.855,2.562-2.855s2.563.951,2.563,2.855v8.859h4.686c1.831,0,2.782.732,2.782,2.2,0,1.391-.951,2.124-2.782,2.124H699.1v27.38c0,1.831-.878,2.709-2.562,2.709s-2.562-.878-2.562-2.709v-27.38h-4.247c-1.684,0-2.489-.733-2.489-2.124,0-1.465.806-2.2,2.489-2.2Z" transform="translate(-403.988 -9.798)"/><g transform="translate(96.408 87.774)"><path class="b" d="M224.191,121.67h-2.016a30.724,30.724,0,0,0-6.943-18.472.986.986,0,1,0-1.524,1.252,28.748,28.748,0,0,1,6.494,17.22h-6.549a22.184,22.184,0,0,0-21.146-21.146V93.975a28.584,28.584,0,0,1,18.642,7.743.986.986,0,0,0,1.349-1.439A30.548,30.548,0,0,0,192.506,92V89.986a.986.986,0,1,0-1.972,0V92a30.481,30.481,0,0,0-16.291,5.309,4.637,4.637,0,0,0-6.729,6.255,30.725,30.725,0,0,0-6.648,18.105H158.85a.986.986,0,1,0,0,1.972h2.015a30.335,30.335,0,0,0,5.844,17.049,4.637,4.637,0,0,0,6.468,6.548,30.354,30.354,0,0,0,17.356,6.072v2.015a.986.986,0,0,0,1.972,0v-2.016a30.666,30.666,0,0,0,29.668-29.668h2.016a.986.986,0,1,0,0-1.972ZM205.971,135.3a2.669,2.669,0,1,1,2.669,2.669A2.672,2.672,0,0,1,205.971,135.3Zm2.669-4.641a4.638,4.638,0,0,0-3.859,7.215,20.068,20.068,0,0,1-12.274,4.944v-8.828a11.392,11.392,0,0,0,10.345-10.345h8.827a19.944,19.944,0,0,1-1.709,7.209,4.616,4.616,0,0,0-1.329-.195Zm-28.451-7.015a11.393,11.393,0,0,0,10.345,10.345v8.827a20.211,20.211,0,0,1-19.173-19.173Zm12.317,0h8.365a9.419,9.419,0,0,1-8.365,8.364Zm0-1.972v-8.365a9.419,9.419,0,0,1,8.365,8.365Zm-1.972,0H182.17a9.42,9.42,0,0,1,8.365-8.365Zm0,1.972v8.364a9.419,9.419,0,0,1-8.365-8.364Zm21.145-1.972h-8.827a11.393,11.393,0,0,0-10.345-10.345V102.5A20.21,20.21,0,0,1,211.679,121.67ZM171.316,98.239a2.669,2.669,0,1,1-2.669,2.669A2.672,2.672,0,0,1,171.316,98.239Zm-2.349,6.669a4.638,4.638,0,0,0,6.511-6.05,28.515,28.515,0,0,1,15.057-4.883v6.551a22.1,22.1,0,0,0-16.043,7.958.986.986,0,1,0,1.515,1.263,20.137,20.137,0,0,1,14.527-7.246v8.826a11.393,11.393,0,0,0-10.345,10.345h-8.825a20.189,20.189,0,0,1,2.459-8.726.986.986,0,1,0-1.728-.95,22.163,22.163,0,0,0-2.705,9.676H162.84A28.749,28.749,0,0,1,168.966,104.907Zm1.385,41.323a2.669,2.669,0,1,1,2.669-2.669A2.672,2.672,0,0,1,170.351,146.231Zm4.1-.5a4.638,4.638,0,0,0-6.218-6.3,28.374,28.374,0,0,1-5.4-15.792h6.55a22.183,22.183,0,0,0,21.146,21.146v6.55A28.394,28.394,0,0,1,174.453,145.73Zm37.361-2.78a28.5,28.5,0,0,1-19.308,8.387v-6.549a22.032,22.032,0,0,0,13.7-5.543,4.638,4.638,0,0,0,5.495-7.433,21.9,21.9,0,0,0,1.954-8.169H220.2a28.5,28.5,0,0,1-8.387,19.308Z" transform="translate(-157.864 -89)"/></g><circle class="c" cx="5.498" cy="5.498" r="5.498" transform="translate(103.46 136.86)"/><circle class="c" cx="5.498" cy="5.498" r="5.498" transform="translate(141.579 128.742)"/><circle class="d" cx="5.498" cy="5.498" r="5.498" transform="translate(104.519 94.153)"/><circle class="d" cx="5.077" cy="5.077" r="5.077" transform="translate(271.953 92.871)"/></g></svg>